<?xml version="1.0" encoding="UTF-8"?>
<svg id="Layer_2" data-name="Layer 2" xmlns="http://www.w3.org/2000/svg" viewBox="0 0 885.27 615.24">
  <defs>
    <style>
      .cls-1 {
        fill: #fff;
      }
    </style>
  </defs>
  <g id="Layer_1-2" data-name="Layer 1">
    <g>
      <path class="cls-1" d="m648.57,238.22l-223.8-34.36L326.17,0l-101.84,202.25L0,233.01l160.87,159.36-40.07,222.87,201.22-103.73.2-.78,135.05,54.75,9.34,3.78-18.98-13.22-128.25-89.38.35-.4-148.59,76.57,29.68-165.07-119.16-118.05,166.18-22.78,75.44-149.8,73.02,151,165.8,25.42-15.68,72.67,102.15-97.99Z"/>
      <polygon class="cls-1" points="593.28 443.57 611.71 486.19 657.27 495.17 622.43 525.87 627.96 571.98 588 548.33 545.86 567.84 556.01 522.52 524.43 488.48 570.66 484.12 593.28 443.57"/>
      <polygon class="cls-1" points="762.21 437.07 775.64 468.13 808.84 474.68 783.45 497.05 787.49 530.65 758.37 513.41 727.66 527.63 735.05 494.61 712.04 469.8 745.73 466.63 762.21 437.07"/>
      <g>
        <path class="cls-1" d="m355.44,265.63c-3.14-2.09-6.21-3.69-9.21-4.79-3-1.1-5.8-1.65-8.38-1.65-7.93,0-14.43,14.13-19.49,42.38-.55,3.3-.99,5.81-1.32,7.52,2.42.28,4.97.47,7.64.58,2.67.11,5.55.17,8.63.17,2.59,0,4.69-.22,6.32-.66,1.62-.44,3.07-1.13,4.34-2.07l1.16,2.15c-3.3,3.85-6.88,6.54-10.74,8.05-3.85,1.51-9.42,2.27-16.69,2.27h-2.23c-.55,3.85-1.35,9.44-2.4,16.77-5.29,37.28-11.35,61.71-18.17,73.27-5.78,9.69-14.07,17.61-24.86,23.75-10.79,6.14-21.75,9.21-32.88,9.21-4.9,0-8.69-.88-11.36-2.64-2.67-1.76-4.01-4.27-4.01-7.52,0-1.38.33-2.84.99-4.38s1.68-3.17,3.06-4.87c3.14,3.14,6.76,5.49,10.86,7.06,4.1,1.57,8.66,2.35,13.67,2.35,7.6,0,13.8-1.89,18.59-5.66,4.79-3.77,8.56-9.76,11.32-17.97,3.19-9.53,7.3-31.11,12.31-64.76,1.6-10.96,2.86-19.44,3.8-25.44-2.75,0-5.34.25-7.76.74-2.42.5-4.85,1.27-7.27,2.31l-1.07-1.65c3.47-3.8,6.58-6.55,9.33-8.26,2.75-1.71,5.56-2.75,8.43-3.14,2.31-17.07,8.64-31.32,19-42.75,10.35-11.43,21.34-17.14,32.96-17.14,2.86,0,5.19.73,6.98,2.19,1.79,1.46,2.68,3.35,2.68,5.66,0,1.43-.33,2.85-.99,4.25s-1.73,2.96-3.22,4.67Z"/>
        <path class="cls-1" d="m384.51,303.72c6.83,0,11.92,1.86,15.28,5.58,3.36,3.72,5.04,9.35,5.04,16.89,0,15.7-5.03,29.12-15.08,40.27-10.05,11.15-21.9,16.73-35.56,16.73-6.28,0-11.03-1.87-14.25-5.62-3.22-3.74-4.83-9.31-4.83-16.69,0-8.54,1.54-16.58,4.63-24.12,3.08-7.54,7.41-13.93,12.97-19.16,4.41-4.19,9.54-7.54,15.41-10.08,5.86-2.53,11.33-3.8,16.4-3.8Zm-1.73,25.36c0-5.4-.81-9.49-2.44-12.27-1.62-2.78-4.01-4.17-7.15-4.17-5.07,0-9.1,4.06-12.1,12.18-3,8.12-4.5,19.01-4.5,32.67,0,5.56.81,9.77,2.44,12.64,1.62,2.86,4.03,4.3,7.23,4.3,5.01,0,9.02-4.08,12.02-12.23,3-8.15,4.5-19.19,4.5-33.12Z"/>
        <path class="cls-1" d="m453.32,284.55l2.07,2.07c-1.93,4.46-3.42,8.49-4.46,12.1-1.05,3.61-1.76,7.06-2.15,10.37,3.74.33,6.59.56,8.55.7,1.95.14,3.56.21,4.83.21,2.7,0,4.82-.22,6.36-.66,1.54-.44,2.92-1.18,4.13-2.23l1.32,1.65c-3.3,4.08-6.51,6.9-9.62,8.47-3.11,1.57-7.01,2.35-11.69,2.35-1.38,0-2.45-.01-3.22-.04-.77-.03-1.52-.04-2.23-.04-1.76,10.02-3.18,18.97-4.25,26.85-1.07,7.88-1.61,13.16-1.61,15.86,0,1.16.17,2.01.5,2.56s.83.83,1.49.83c.88,0,2.04-.61,3.47-1.82,1.43-1.21,3.33-3.25,5.7-6.11l3.55,3.39c-5.56,6.99-10.97,12.43-16.23,16.31-5.26,3.88-9.76,5.82-13.51,5.82-2.09,0-3.75-.67-4.96-2.02-1.21-1.35-1.82-3.21-1.82-5.58,0-3.58.71-10.16,2.15-19.74,1.43-9.58,3.58-22,6.44-37.25-2.75.11-5.37.43-7.85.95s-4.93,1.28-7.35,2.27l-1.4-2.73c5.84-3.08,12.27-7.52,19.29-13.3,7.02-5.78,14.52-12.86,22.51-21.23Z"/>
        <path class="cls-1" d="m518.83,303.72c6.83,0,11.92,1.86,15.28,5.58,3.36,3.72,5.04,9.35,5.04,16.89,0,15.7-5.03,29.12-15.08,40.27-10.05,11.15-21.9,16.73-35.56,16.73-6.28,0-11.03-1.87-14.25-5.62s-4.83-9.31-4.83-16.69c0-8.54,1.54-16.58,4.63-24.12,3.08-7.54,7.41-13.93,12.97-19.16,4.41-4.19,9.54-7.54,15.41-10.08,5.86-2.53,11.33-3.8,16.4-3.8Zm-1.73,25.36c0-5.4-.81-9.49-2.44-12.27-1.62-2.78-4.01-4.17-7.15-4.17-5.07,0-9.1,4.06-12.1,12.18-3,8.12-4.5,19.01-4.5,32.67,0,5.56.81,9.77,2.44,12.64,1.62,2.86,4.03,4.3,7.23,4.3,5.01,0,9.02-4.08,12.02-12.23,3-8.15,4.5-19.19,4.5-33.12Z"/>
        <path class="cls-1" d="m635.55,356.5l3.22,3.22c-5.84,7.38-11.4,13.16-16.69,17.35-5.29,4.19-9.58,6.28-12.89,6.28-1.98,0-3.44-.72-4.38-2.15-.94-1.43-1.4-3.63-1.4-6.61,0-5.07,1.24-13.11,3.72-24.12,2.48-11.01,3.72-18.7,3.72-23.05,0-.88-.21-1.58-.62-2.11s-.95-.78-1.61-.78c-.88,0-1.98.52-3.3,1.57s-2.86,2.62-4.63,4.71l-3.22-3.22c5.89-7.49,11.44-13.31,16.64-17.47,5.2-4.16,9.49-6.24,12.85-6.24,1.82,0,3.22.65,4.21,1.94s1.49,3.13,1.49,5.49c0,5.01-1.21,13.18-3.63,24.49-2.42,11.32-3.63,19.18-3.63,23.58,0,1.16.18,2.01.54,2.56.36.55.92.83,1.69.83.88,0,2-.52,3.35-1.57,1.35-1.05,2.88-2.62,4.58-4.71Zm-7.93-87.48c2.59,0,4.72.88,6.4,2.64,1.68,1.76,2.52,3.99,2.52,6.69,0,4.24-1.2,7.81-3.59,10.7-2.4,2.89-5.3,4.34-8.71,4.34-2.7,0-4.9-.88-6.61-2.64-1.71-1.76-2.56-4.1-2.56-7.02,0-3.85,1.25-7.27,3.76-10.24,2.51-2.97,5.44-4.46,8.8-4.46Z"/>
        <path class="cls-1" d="m757.72,265.63c-3.19-2.09-6.27-3.69-9.21-4.79-2.95-1.1-5.69-1.65-8.22-1.65-3.91,0-7.02,1.51-9.33,4.54s-4.27,8.23-5.86,15.61c-4.13,18.34-7.48,35.6-10.04,51.79-2.56,16.19-3.84,26.38-3.84,30.56,0,1.16.17,2.04.5,2.64s.83.91,1.49.91c.71,0,1.62-.45,2.73-1.36,1.1-.91,2.73-2.57,4.87-5l3.55,2.97c-5.18,6.66-10.24,11.88-15.2,15.65-4.96,3.77-9.2,5.66-12.72,5.66-2.09,0-3.73-.83-4.92-2.48-1.19-1.65-1.78-3.97-1.78-6.94s1.02-9.69,3.06-20.32l.41-2.31c-6.28,9.53-12.94,17.25-19.99,23.17-7.05,5.92-12.78,8.88-17.18,8.88-2.81,0-4.89-.94-6.24-2.81-1.35-1.87-2.02-4.71-2.02-8.51,0-19.27,4.67-34.76,14-46.47,9.33-11.7,22.43-18.49,39.28-20.36,2.48-15.92,8.87-29.26,19.16-40.02,10.3-10.77,21.04-16.15,32.22-16.15,2.86,0,5.16.72,6.9,2.15s2.6,3.33,2.6,5.7c0,1.43-.33,2.85-.99,4.25s-1.73,2.96-3.22,4.67Zm-58.4,51.46c-1.76-.11-3.98-.34-6.65-.7-2.67-.36-4.45-.54-5.33-.54-3.03,0-5.44.67-7.23,2.02-1.79,1.35-3.26,3.62-4.42,6.81-2.15,5.51-3.97,11.99-5.45,19.45-1.49,7.46-2.23,13.37-2.23,17.72,0,2.04.26,3.51.78,4.42.52.91,1.33,1.36,2.44,1.36,4.02,0,9.11-5.03,15.28-15.08,6.17-10.05,10.44-21.88,12.8-35.48Z"/>
        <path class="cls-1" d="m782.26,303.72c6.83,0,11.92,1.86,15.28,5.58,3.36,3.72,5.04,9.35,5.04,16.89,0,15.7-5.03,29.12-15.08,40.27-10.05,11.15-21.9,16.73-35.56,16.73-6.28,0-11.03-1.87-14.25-5.62s-4.83-9.31-4.83-16.69c0-8.54,1.54-16.58,4.63-24.12,3.08-7.54,7.41-13.93,12.97-19.16,4.41-4.19,9.54-7.54,15.41-10.08,5.86-2.53,11.33-3.8,16.4-3.8Zm-1.73,25.36c0-5.4-.81-9.49-2.44-12.27-1.62-2.78-4.01-4.17-7.15-4.17-5.07,0-9.1,4.06-12.1,12.18-3,8.12-4.5,19.01-4.5,32.67,0,5.56.81,9.77,2.44,12.64,1.62,2.86,4.03,4.3,7.23,4.3,5.01,0,9.02-4.08,12.02-12.23,3-8.15,4.5-19.19,4.5-33.12Z"/>
        <path class="cls-1" d="m881.05,265.97c-3.14-2.15-6.21-3.79-9.21-4.92-3-1.13-5.8-1.69-8.38-1.69-3.91,0-6.97,1.4-9.17,4.21-2.2,2.81-4.19,7.9-5.95,15.28-4.08,17.29-7.37,34.17-9.87,50.64-2.51,16.47-3.76,27.2-3.76,32.22,0,1.16.17,2.01.5,2.56s.83.83,1.49.83c.77,0,1.73-.47,2.89-1.4s2.73-2.53,4.71-4.79l3.55,2.97c-5.34,6.55-10.52,11.66-15.53,15.32-5.01,3.66-9.25,5.49-12.72,5.49-2.2,0-3.85-.72-4.96-2.15-1.1-1.43-1.65-3.58-1.65-6.44,0-3.19.56-8.76,1.69-16.69,1.13-7.93,2.71-17.76,4.75-29.49,3.08-16.85,5.71-28.66,7.89-35.44,2.18-6.77,4.8-12.5,7.89-17.18,4.96-7.65,11.23-13.92,18.83-18.79,7.6-4.87,14.62-7.31,21.06-7.31,3.14,0,5.62.7,7.43,2.11s2.73,3.32,2.73,5.74c0,1.49-.34,2.97-1.03,4.46-.69,1.49-1.75,2.97-3.18,4.46Z"/>
      </g>
      <path class="cls-1" d="m260.43,472.47c14.53-13.28,31.93-23.14,49.36-32.03,8.36-4.04,17.73-8.32,26.33-11.66,6.44-2.64,15.91-5.99,22.44-8.26,4.13-1.37,11.73-3.67,15.93-5.02,4.05-1.11,11.93-3.31,16.08-4.45,64.25-16.33,131.31-21.52,197.42-19.89,87.88,1.97,175.58,15.52,261.19,34.73.27.06.44.33.38.6-.06.26-.32.43-.59.38-55.36-10.91-111.17-19.56-167.36-24.04-23.9-2.11-50.99-3.41-74.95-3.83-5.21-.2-13.43-.1-18.75-.08-10.54-.11-26.76.38-37.46.81-5.23.1-13.37.71-18.69,1.05-10.7.49-26.41,2.17-37.26,3.21-49.19,5.8-98.36,16.05-144.42,34.4-2.37,1.01-10.37,4.36-12.77,5.39-6.58,2.98-14.3,6.68-20.72,10.03-15.13,8.16-30.31,17.34-43.1,28.88,0,0-.73.7-.73.7,0,0-.36.35-.36.35l-.24.25c-3.14,3.37-8.49,3.5-11.77.26-3.29-3.22-3.27-8.56.04-11.76h0Z"/>
    </g>
  </g>
</svg>